<?xml version="1.0" encoding="UTF-8" standalone="no"?>
<svg
   xmlns:osb="http://www.openswatchbook.org/uri/2009/osb"
   xmlns:dc="http://purl.org/dc/elements/1.1/"
   xmlns:cc="http://creativecommons.org/ns#"
   xmlns:rdf="http://www.w3.org/1999/02/22-rdf-syntax-ns#"
   xmlns:svg="http://www.w3.org/2000/svg"
   xmlns="http://www.w3.org/2000/svg"
   xmlns:sodipodi="http://sodipodi.sourceforge.net/DTD/sodipodi-0.dtd"
   xmlns:inkscape="http://www.inkscape.org/namespaces/inkscape"
   width="1600"
   height="900"
   viewBox="0 0 423.33335 238.12499"
   version="1.1"
   id="svg8"
   inkscape:version="1.0.1 (c497b03c, 2020-09-10)"
   sodipodi:docname="design.svg">
  <style
     id="style833"></style>
  <defs
     id="defs2">
    <marker
       style="overflow:visible;"
       id="Arrow2Mend"
       refX="0.0"
       refY="0.0"
       orient="auto"
       inkscape:stockid="Arrow2Mend"
       inkscape:isstock="true">
      <path
         transform="scale(0.6) rotate(180) translate(0,0)"
         d="M 8.7185878,4.0337352 L -2.2072895,0.016013256 L 8.7185884,-4.0017078 C 6.9730900,-1.6296469 6.9831476,1.6157441 8.7185878,4.0337352 z "
         style="fill-rule:evenodd;stroke-width:0.625;stroke-linejoin:round;stroke:#4d4d4d;stroke-opacity:1;fill:#4d4d4d;fill-opacity:1"
         id="path1346" />
    </marker>
    <marker
       style="overflow:visible;"
       id="Arrow2Lend"
       refX="0.0"
       refY="0.0"
       orient="auto"
       inkscape:stockid="Arrow2Lend"
       inkscape:isstock="true">
      <path
         transform="scale(1.1) rotate(180) translate(1,0)"
         d="M 8.7185878,4.0337352 L -2.2072895,0.016013256 L 8.7185884,-4.0017078 C 6.9730900,-1.6296469 6.9831476,1.6157441 8.7185878,4.0337352 z "
         style="fill-rule:evenodd;stroke-width:0.625;stroke-linejoin:round;stroke:#4d4d4d;stroke-opacity:1;fill:#4d4d4d;fill-opacity:1"
         id="path1340" />
    </marker>
    <rect
       x="118.3084"
       y="47.939089"
       width="20.451079"
       height="8.356355"
       id="rect1278" />
    <linearGradient
       id="linearGradient1270"
       osb:paint="solid">
      <stop
         style="stop-color:#000000;stop-opacity:1;"
         offset="0"
         id="stop1268" />
    </linearGradient>
  </defs>
  <sodipodi:namedview
     id="base"
     pagecolor="#ffffff"
     bordercolor="#666666"
     borderopacity="1.0"
     inkscape:pageopacity="0.0"
     inkscape:pageshadow="2"
     inkscape:zoom="1.2031761"
     inkscape:cx="444.23231"
     inkscape:cy="274.56918"
     inkscape:document-units="mm"
     inkscape:current-layer="layer1"
     inkscape:document-rotation="0"
     showgrid="false"
     units="px"
     inkscape:pagecheckerboard="false"
     inkscape:window-width="1440"
     inkscape:window-height="755"
     inkscape:window-x="0"
     inkscape:window-y="25"
     inkscape:window-maximized="1" />
  <metadata
     id="metadata5">
    <rdf:RDF>
      <cc:Work
         rdf:about="">
        <dc:format>image/svg+xml</dc:format>
        <dc:type
           rdf:resource="http://purl.org/dc/dcmitype/StillImage" />
        <dc:title />
      </cc:Work>
    </rdf:RDF>
  </metadata>
  <g
     inkscape:label="Layer 1"
     inkscape:groupmode="layer"
     id="layer1">
    <g
       style="fill:#4d4d4d"
       id="g950"
       transform="matrix(1.25,0,0,1.25,81.990295,26.486576)">
      <path
         d="m 3,14 c 0,0 -1,0 -1,-1 0,-1 1,-4 6,-4 5,0 6,3 6,4 0,1 -1,1 -1,1 z M 8,8 A 3,3 0 1 0 8,2 3,3 0 0 0 8,8 Z"
         id="path939"
         style="fill:#4d4d4d" />
    </g>
    <g
       style="fill:#4d4d4d"
       id="g1031"
       transform="matrix(0.9375,0,0,0.9375,18.57963,28.986576)">
      <path
         d="M 0,8 A 8,8 0 1 1 16,8 8,8 0 0 1 0,8 Z M 7.5,1.077 C 6.83,1.281 6.165,1.897 5.613,2.932 5.47,3.2 5.337,3.492 5.218,3.804 5.923,3.961 6.69,4.061 7.5,4.091 Z M 4.249,3.539 C 4.391,3.155 4.553,2.795 4.73,2.461 A 6.7,6.7 0 0 1 5.327,1.528 7.01,7.01 0 0 0 3.051,3.05 C 3.413,3.234 3.814,3.399 4.249,3.54 Z M 3.509,7.5 C 3.545,6.43 3.697,5.413 3.945,4.492 A 9.124,9.124 0 0 1 2.38,3.825 6.964,6.964 0 0 0 1.018,7.5 h 2.49 z m 1.4,-2.741 A 12.344,12.344 0 0 0 4.509,7.5 H 7.5 V 5.091 C 6.59,5.061 5.717,4.946 4.909,4.759 Z M 8.5,5.09 V 7.5 h 2.99 A 12.342,12.342 0 0 0 11.091,4.759 C 10.283,4.946 9.41,5.06 8.5,5.091 Z M 4.51,8.5 c 0.035,0.987 0.176,1.914 0.399,2.741 A 13.612,13.612 0 0 1 7.5,10.91 V 8.5 Z m 3.99,0 v 2.409 c 0.91,0.03 1.783,0.145 2.591,0.332 0.223,-0.827 0.364,-1.754 0.4,-2.741 z m -3.282,3.696 c 0.12,0.312 0.252,0.604 0.395,0.872 0.552,1.035 1.218,1.65 1.887,1.855 V 11.91 c -0.81,0.03 -1.577,0.13 -2.282,0.287 z m 0.11,2.276 A 6.696,6.696 0 0 1 4.73,13.539 8.853,8.853 0 0 1 4.249,12.46 8.38,8.38 0 0 0 3.051,12.95 7.01,7.01 0 0 0 5.327,14.472 Z M 3.945,11.508 A 13.36,13.36 0 0 1 3.508,8.5 h -2.49 a 6.963,6.963 0 0 0 1.362,3.675 c 0.47,-0.258 0.995,-0.482 1.565,-0.667 z m 6.728,2.964 a 7.009,7.009 0 0 0 2.275,-1.521 8.376,8.376 0 0 0 -1.197,-0.49 8.853,8.853 0 0 1 -0.481,1.078 6.688,6.688 0 0 1 -0.597,0.933 z M 8.5,11.909 v 3.014 c 0.67,-0.204 1.335,-0.82 1.887,-1.855 0.143,-0.268 0.276,-0.56 0.395,-0.872 A 12.63,12.63 0 0 0 8.5,11.91 Z m 3.555,-0.401 c 0.57,0.185 1.095,0.409 1.565,0.667 A 6.963,6.963 0 0 0 14.982,8.5 h -2.49 a 13.36,13.36 0 0 1 -0.437,3.008 z M 14.982,7.5 A 6.963,6.963 0 0 0 13.62,3.825 c -0.47,0.258 -0.995,0.482 -1.565,0.667 0.248,0.92 0.4,1.938 0.437,3.008 z M 11.27,2.461 c 0.177,0.334 0.339,0.694 0.482,1.078 a 8.368,8.368 0 0 0 1.196,-0.49 7.01,7.01 0 0 0 -2.275,-1.52 c 0.218,0.283 0.418,0.597 0.597,0.932 z M 10.782,3.804 A 7.765,7.765 0 0 0 10.387,2.932 C 9.835,1.897 9.17,1.282 8.5,1.077 V 4.09 C 9.31,4.06 10.077,3.96 10.782,3.803 Z"
         id="path1020"
         style="fill:#4d4d4d" />
    </g>
    <g
       id="g1282"
       transform="matrix(0.25,0,0,0.25,56.678244,30.1625)"
       style="fill:#4d4d4d">
      <g
         id="g1221"
         style="fill:#4d4d4d">
        <path
           d="M 41.257,0 H 18.743 C 15.025,0 12,3.025 12,6.743 V 53.257 C 12,56.975 15.025,60 18.743,60 H 41.257 C 44.975,60 48,56.975 48,53.257 V 6.743 C 48,3.025 44.975,0 41.257,0 Z M 46,53.257 C 46,55.872 43.872,58 41.257,58 H 18.743 C 16.128,58 14,55.872 14,53.257 V 6.743 C 14,4.128 16.128,2 18.743,2 H 41.257 C 43.872,2 46,4.128 46,6.743 Z"
           id="path1209"
           style="fill:#4d4d4d" />
        <path
           d="m 27,5 h 6 C 33.553,5 34,4.553 34,4 34,3.447 33.553,3 33,3 h -6 c -0.553,0 -1,0.447 -1,1 0,0.553 0.447,1 1,1 z"
           id="path1211"
           style="fill:#4d4d4d" />
        <path
           d="m 41,5 h 1 C 42.553,5 43,4.553 43,4 43,3.447 42.553,3 42,3 h -1 c -0.553,0 -1,0.447 -1,1 0,0.553 0.447,1 1,1 z"
           id="path1213"
           style="fill:#4d4d4d" />
        <path
           d="m 37,5 h 1 C 38.553,5 39,4.553 39,4 39,3.447 38.553,3 38,3 h -1 c -0.553,0 -1,0.447 -1,1 0,0.553 0.447,1 1,1 z"
           id="path1215"
           style="fill:#4d4d4d" />
        <path
           d="m 32.5,52 h -5 c -1.379,0 -2.5,1.121 -2.5,2.5 0,1.379 1.121,2.5 2.5,2.5 h 5 C 33.879,57 35,55.879 35,54.5 35,53.121 33.879,52 32.5,52 Z m 0,3 h -5 C 27.229,55 27,54.771 27,54.5 27,54.229 27.229,54 27.5,54 h 5 c 0.271,0 0.5,0.229 0.5,0.5 0,0.271 -0.229,0.5 -0.5,0.5 z"
           id="path1217"
           style="fill:#4d4d4d" />
        <path
           d="M 15,6 V 51 H 45 V 6 Z m 12.293,3.293 c 0.391,-0.391 1.023,-0.391 1.414,0 0.391,0.391 0.391,1.023 0,1.414 l -3,3 C 25.512,13.902 25.256,14 25,14 c -0.256,0 -0.512,-0.098 -0.707,-0.293 -0.391,-0.391 -0.391,-1.023 0,-1.414 z m -9,4 4,-4 c 0.391,-0.391 1.023,-0.391 1.414,0 0.391,0.391 0.391,1.023 0,1.414 l -4,4 C 19.512,14.902 19.256,15 19,15 c -0.256,0 -0.512,-0.098 -0.707,-0.293 -0.391,-0.391 -0.391,-1.023 0,-1.414 z M 24,15 c 0,0.26 -0.11,0.52 -0.29,0.71 C 23.52,15.89 23.26,16 23,16 22.74,16 22.479,15.89 22.29,15.71 22.109,15.52 22,15.26 22,15 c 0,-0.271 0.109,-0.521 0.29,-0.71 0.37,-0.37 1.04,-0.37 1.42,0 C 23.89,14.479 24,14.74 24,15 Z m -5.707,3.293 2,-2 c 0.391,-0.391 1.023,-0.391 1.414,0 0.391,0.391 0.391,1.023 0,1.414 l -2,2 C 19.512,19.902 19.256,20 19,20 c -0.256,0 -0.512,-0.098 -0.707,-0.293 -0.391,-0.391 -0.391,-1.023 0,-1.414 z m 10.414,-2.586 -9,9 C 19.512,24.902 19.256,25 19,25 c -0.256,0 -0.512,-0.098 -0.707,-0.293 -0.391,-0.391 -0.391,-1.023 0,-1.414 l 9,-9 c 0.391,-0.391 1.023,-0.391 1.414,0 0.391,0.391 0.391,1.023 0,1.414 z M 30.71,13.71 C 30.52,13.89 30.26,14 30,14 29.74,14 29.479,13.89 29.29,13.71 29.109,13.52 29,13.26 29,13 c 0,-0.26 0.109,-0.521 0.29,-0.71 0.37,-0.37 1.05,-0.37 1.42,0 0.18,0.189 0.29,0.45 0.29,0.71 0,0.26 -0.11,0.52 -0.29,0.71 z m 2.997,-3.003 -1,1 C 32.512,11.902 32.256,12 32,12 c -0.256,0 -0.512,-0.098 -0.707,-0.293 -0.391,-0.391 -0.391,-1.023 0,-1.414 l 1,-1 c 0.391,-0.391 1.023,-0.391 1.414,0 0.391,0.391 0.391,1.023 0,1.414 z"
           id="path1219"
           style="fill:#4d4d4d" />
      </g>
      <g
         id="g1223"
         style="fill:#4d4d4d" />
      <g
         id="g1225"
         style="fill:#4d4d4d" />
      <g
         id="g1227"
         style="fill:#4d4d4d" />
      <g
         id="g1229"
         style="fill:#4d4d4d" />
      <g
         id="g1231"
         style="fill:#4d4d4d" />
      <g
         id="g1233"
         style="fill:#4d4d4d" />
      <g
         id="g1235"
         style="fill:#4d4d4d" />
      <g
         id="g1237"
         style="fill:#4d4d4d" />
      <g
         id="g1239"
         style="fill:#4d4d4d" />
      <g
         id="g1241"
         style="fill:#4d4d4d" />
      <g
         id="g1243"
         style="fill:#4d4d4d" />
      <g
         id="g1245"
         style="fill:#4d4d4d" />
      <g
         id="g1247"
         style="fill:#4d4d4d" />
      <g
         id="g1249"
         style="fill:#4d4d4d" />
      <g
         id="g1251"
         style="fill:#4d4d4d" />
    </g>
    <g
       id="g1829"
       transform="matrix(0.02929688,0,0,0.02929688,21.166663,71.496297)"
       style="fill:#4d4d4d">
      <g
         id="g1529"
         style="fill:#4d4d4d">
        <g
           id="g1527"
           style="fill:#4d4d4d">
          <rect
             x="51.200001"
             y="51.200001"
             width="51.200001"
             height="51.200001"
             id="rect1525"
             style="fill:#4d4d4d" />
        </g>
      </g>
      <g
         id="g1535"
         style="fill:#4d4d4d">
        <g
           id="g1533"
           style="fill:#4d4d4d">
          <path
             d="m 358.4,0 v 25.6 h -25.6 v 25.6 h 25.6 V 153.6 H 384 v 25.6 h -25.6 v 25.6 h 25.6 25.6 v -51.2 h 76.8 v 25.6 H 512 V 153.6 0 Z m 128,128 H 384 V 25.6 h 102.4 z"
             id="path1531"
             style="fill:#4d4d4d" />
        </g>
      </g>
      <g
         id="g1541"
         style="fill:#4d4d4d">
        <g
           id="g1539"
           style="fill:#4d4d4d">
          <rect
             x="409.60001"
             y="51.200001"
             width="51.200001"
             height="51.200001"
             id="rect1537"
             style="fill:#4d4d4d" />
        </g>
      </g>
      <g
         id="g1547"
         style="fill:#4d4d4d">
        <g
           id="g1545"
           style="fill:#4d4d4d">
          <rect
             x="51.200001"
             y="409.60001"
             width="51.200001"
             height="51.200001"
             id="rect1543"
             style="fill:#4d4d4d" />
        </g>
      </g>
      <g
         id="g1553"
         style="fill:#4d4d4d">
        <g
           id="g1551"
           style="fill:#4d4d4d">
          <rect
             x="358.39999"
             y="358.39999"
             width="25.6"
             height="25.6"
             id="rect1549"
             style="fill:#4d4d4d" />
        </g>
      </g>
      <g
         id="g1559"
         style="fill:#4d4d4d">
        <g
           id="g1557"
           style="fill:#4d4d4d">
          <rect
             x="230.39999"
             y="486.39999"
             width="25.6"
             height="25.6"
             id="rect1555"
             style="fill:#4d4d4d" />
        </g>
      </g>
      <g
         id="g1565"
         style="fill:#4d4d4d">
        <g
           id="g1563"
           style="fill:#4d4d4d">
          <rect
             x="256"
             y="384"
             width="25.6"
             height="25.6"
             id="rect1561"
             style="fill:#4d4d4d" />
        </g>
      </g>
      <g
         id="g1571"
         style="fill:#4d4d4d">
        <g
           id="g1569"
           style="fill:#4d4d4d">
          <rect
             x="256"
             y="435.20001"
             width="25.6"
             height="25.6"
             id="rect1567"
             style="fill:#4d4d4d" />
        </g>
      </g>
      <g
         id="g1577"
         style="fill:#4d4d4d">
        <g
           id="g1575"
           style="fill:#4d4d4d">
          <rect
             x="486.39999"
             y="307.20001"
             width="25.6"
             height="25.6"
             id="rect1573"
             style="fill:#4d4d4d" />
        </g>
      </g>
      <g
         id="g1583"
         style="fill:#4d4d4d">
        <g
           id="g1581"
           style="fill:#4d4d4d">
          <rect
             y="307.20001"
             width="25.6"
             height="25.6"
             id="rect1579"
             x="0"
             style="fill:#4d4d4d" />
        </g>
      </g>
      <g
         id="g1589"
         style="fill:#4d4d4d">
        <g
           id="g1587"
           style="fill:#4d4d4d">
          <rect
             y="179.2"
             width="25.6"
             height="25.6"
             id="rect1585"
             x="0"
             style="fill:#4d4d4d" />
        </g>
      </g>
      <g
         id="g1595"
         style="fill:#4d4d4d">
        <g
           id="g1593"
           style="fill:#4d4d4d">
          <polygon
             points="307.2,25.6 281.6,25.6 281.6,51.2 230.4,51.2 230.4,76.8 307.2,76.8 307.2,51.2 "
             id="polygon1591"
             style="fill:#4d4d4d" />
        </g>
      </g>
      <g
         id="g1601"
         style="fill:#4d4d4d">
        <g
           id="g1599"
           style="fill:#4d4d4d">
          <path
             d="m 486.4,204.8 v 25.6 H 435.2 V 256 H 358.4 V 230.4 H 332.8 V 256 h -51.2 v 25.6 h 76.8 v 25.6 H 307.2 281.6 V 281.6 H 256 v 25.6 h -25.6 v -25.6 h -25.6 v 25.6 h -25.6 v 25.6 h 51.2 v 25.6 H 256 v -25.6 h 51.2 v 25.6 H 281.6 V 384 h 25.6 v 51.2 h 25.6 v 25.6 h 25.6 v -25.6 h 76.8 V 384 h 25.6 V 358.4 H 435.2 V 307.2 H 384 v -25.6 h 51.2 v 25.6 h 25.6 v -25.6 h 25.6 V 256 H 512 v -25.6 -25.6 z m -76.8,128 v 76.8 h -76.8 v -76.8 z"
             id="path1597"
             style="fill:#4d4d4d" />
        </g>
      </g>
      <g
         id="g1607"
         style="fill:#4d4d4d">
        <g
           id="g1605"
           style="fill:#4d4d4d">
          <polygon
             points="281.6,179.2 281.6,204.8 281.6,230.4 307.2,230.4 307.2,204.8 332.8,204.8 332.8,179.2 358.4,179.2 358.4,153.6 332.8,153.6 307.2,153.6 307.2,179.2 "
             id="polygon1603"
             style="fill:#4d4d4d" />
        </g>
      </g>
      <g
         id="g1613"
         style="fill:#4d4d4d">
        <g
           id="g1611"
           style="fill:#4d4d4d">
          <rect
             x="281.60001"
             y="486.39999"
             width="51.200001"
             height="25.6"
             id="rect1609"
             style="fill:#4d4d4d" />
        </g>
      </g>
      <g
         id="g1619"
         style="fill:#4d4d4d">
        <g
           id="g1617"
           style="fill:#4d4d4d">
          <rect
             x="204.8"
             y="25.6"
             width="25.6"
             height="25.6"
             id="rect1615"
             style="fill:#4d4d4d" />
        </g>
      </g>
      <g
         id="g1625"
         style="fill:#4d4d4d">
        <g
           id="g1623"
           style="fill:#4d4d4d">
          <rect
             x="409.60001"
             y="204.8"
             width="25.6"
             height="25.6"
             id="rect1621"
             style="fill:#4d4d4d" />
        </g>
      </g>
      <g
         id="g1631"
         style="fill:#4d4d4d">
        <g
           id="g1629"
           style="fill:#4d4d4d">
          <rect
             x="435.20001"
             y="179.2"
             width="25.6"
             height="25.6"
             id="rect1627"
             style="fill:#4d4d4d" />
        </g>
      </g>
      <g
         id="g1637"
         style="fill:#4d4d4d">
        <g
           id="g1635"
           style="fill:#4d4d4d">
          <rect
             x="102.4"
             y="307.20001"
             width="25.6"
             height="25.6"
             id="rect1633"
             style="fill:#4d4d4d" />
        </g>
      </g>
      <g
         id="g1643"
         style="fill:#4d4d4d">
        <g
           id="g1641"
           style="fill:#4d4d4d">
          <path
             d="M 153.6,486.4 V 384 h 25.6 v -25.6 -25.6 h -25.6 v 25.6 H 76.8 V 332.8 H 51.2 25.6 v 25.6 H 0 V 512 h 153.6 51.2 v -25.6 z m -25.6,0 H 25.6 V 384 H 128 Z"
             id="path1639"
             style="fill:#4d4d4d" />
        </g>
      </g>
      <g
         id="g1649"
         style="fill:#4d4d4d">
        <g
           id="g1647"
           style="fill:#4d4d4d">
          <rect
             x="153.60001"
             y="153.60001"
             width="25.6"
             height="25.6"
             id="rect1645"
             style="fill:#4d4d4d" />
        </g>
      </g>
      <g
         id="g1655"
         style="fill:#4d4d4d">
        <g
           id="g1653"
           style="fill:#4d4d4d">
          <path
             d="M 179.2,0 H 153.6 0 v 153.6 h 25.6 v 25.6 h 25.6 v -25.6 h 25.6 v 25.6 h 25.6 v -25.6 h 51.2 v -51.2 h 25.6 V 76.8 H 153.6 V 25.6 h 25.6 25.6 V 0 Z M 128,128 H 25.6 V 25.6 H 128 Z"
             id="path1651"
             style="fill:#4d4d4d" />
        </g>
      </g>
      <g
         id="g1661"
         style="fill:#4d4d4d">
        <g
           id="g1659"
           style="fill:#4d4d4d">
          <rect
             x="307.20001"
             y="76.800003"
             width="25.6"
             height="25.6"
             id="rect1657"
             style="fill:#4d4d4d" />
        </g>
      </g>
      <g
         id="g1667"
         style="fill:#4d4d4d">
        <g
           id="g1665"
           style="fill:#4d4d4d">
          <rect
             x="256"
             width="25.6"
             height="25.6"
             id="rect1663"
             y="0"
             style="fill:#4d4d4d" />
        </g>
      </g>
      <g
         id="g1673"
         style="fill:#4d4d4d">
        <g
           id="g1671"
           style="fill:#4d4d4d">
          <path
             d="M 307.2,153.6 V 128 H 281.6 V 102.4 H 256 V 128 h -51.2 v -25.6 h -25.6 v 25.6 25.6 h 25.6 v 51.2 H 128 v -25.6 h -25.6 v 25.6 H 25.6 v 25.6 H 76.8 V 256 H 0 v 25.6 h 76.8 v 25.6 h 25.6 V 281.6 H 128 v 25.6 h 25.6 v -25.6 h 51.2 V 256 h -25.6 v -25.6 h 25.6 25.6 V 256 H 256 281.6 V 230.4 H 256 V 204.8 H 230.4 V 153.6 Z M 153.6,256 h -51.2 v -25.6 h 51.2 z"
             id="path1669"
             style="fill:#4d4d4d" />
        </g>
      </g>
      <g
         id="g1679"
         style="fill:#4d4d4d">
        <g
           id="g1677"
           style="fill:#4d4d4d">
          <polygon
             points="230.4,435.2 256,435.2 256,409.6 230.4,409.6 230.4,384 230.4,358.4 204.8,358.4 204.8,384 179.2,384 179.2,409.6 204.8,409.6 204.8,435.2 179.2,435.2 179.2,460.8 230.4,460.8 "
             id="polygon1675"
             style="fill:#4d4d4d" />
        </g>
      </g>
      <g
         id="g1685"
         style="fill:#4d4d4d">
        <g
           id="g1683"
           style="fill:#4d4d4d">
          <polygon
             points="512,512 512,486.4 512,460.8 460.8,460.8 460.8,435.2 435.2,435.2 435.2,460.8 358.4,460.8 358.4,486.4 409.6,486.4 409.6,512 435.2,512 435.2,486.4 486.4,486.4 486.4,512 "
             id="polygon1681"
             style="fill:#4d4d4d" />
        </g>
      </g>
      <g
         id="g1691"
         style="fill:#4d4d4d">
        <g
           id="g1689"
           style="fill:#4d4d4d">
          <polygon
             points="512,358.4 486.4,358.4 486.4,384 460.8,384 460.8,409.6 512,409.6 512,384 "
             id="polygon1687"
             style="fill:#4d4d4d" />
        </g>
      </g>
      <g
         id="g1693"
         style="fill:#4d4d4d" />
      <g
         id="g1695"
         style="fill:#4d4d4d" />
      <g
         id="g1697"
         style="fill:#4d4d4d" />
      <g
         id="g1699"
         style="fill:#4d4d4d" />
      <g
         id="g1701"
         style="fill:#4d4d4d" />
      <g
         id="g1703"
         style="fill:#4d4d4d" />
      <g
         id="g1705"
         style="fill:#4d4d4d" />
      <g
         id="g1707"
         style="fill:#4d4d4d" />
      <g
         id="g1709"
         style="fill:#4d4d4d" />
      <g
         id="g1711"
         style="fill:#4d4d4d" />
      <g
         id="g1713"
         style="fill:#4d4d4d" />
      <g
         id="g1715"
         style="fill:#4d4d4d" />
      <g
         id="g1717"
         style="fill:#4d4d4d" />
      <g
         id="g1719"
         style="fill:#4d4d4d" />
      <g
         id="g1721"
         style="fill:#4d4d4d" />
    </g>
    <g
       id="g1224"
       transform="matrix(0.42095964,0,0,0.42095964,28.576908,33.241239)">
      <g
         inkscape:label="Image"
         id="g3360"
         transform="matrix(0.13030199,0,0,0.13030199,41.96987,51.882275)"
         style="fill:#4d4d4d;stroke:#4d4d4d;stroke-opacity:1">
        <path
           style="fill:#4d4d4d;stroke:#4d4d4d;stroke-width:1.33333;stroke-opacity:1"
           d="M 252.66666,373.7035 C 238.49352,370.94114 227.35378,359.70719 224.03035,344.82504 222.47111,337.8428 214.11804,324 211.46405,324 c -0.88548,0 -5.44431,-2.7 -10.13072,-6 -6.47536,-4.55972 -9.73514,-6 -13.57968,-6 -9.53046,0 -21.68146,-6.1436 -31.30779,-15.82934 -10.03949,-10.10146 -13.70808,-16.91591 -13.74992,-25.54064 -0.0331,-6.82614 0.55967,-7.84176 14.11475,-24.18351 7.41278,-8.93672 9.8014,-12.86259 10.5461,-17.33333 1.8702,-11.22752 9.25226,-20.93834 18.32007,-24.09939 5.64183,-1.96676 6.78953,-5.57763 7.40761,-23.30553 l 0.568,-16.29176 12.17376,-11.75683 c 6.69558,-6.46625 15.85224,-13.98496 20.34817,-16.70824 7.6112,-4.61028 8.89732,-4.94982 18.66667,-4.92815 11.98653,0.0266 29.93425,2.74218 40.07903,6.06416 6.431,2.10588 7.30461,2.11219 12.36032,0.0893 3.1305,-1.25259 9.24979,-2.18154 14.41322,-2.18803 l 8.97301,-0.0107 10.66667,11.14135 10.66667,11.14133 10.21048,0.84255 c 15.21924,1.25585 15.90954,1.78457 20.87921,15.99179 2.93581,8.39288 4.2948,14.75281 4.32463,20.23886 0.0239,4.4 0.78065,11.9 1.68162,16.66667 1.5151,8.01568 1.88599,8.64677 4.93776,8.40185 6.22088,-0.49926 9.29867,0.98722 12.70659,6.13691 3.40614,5.14705 3.41242,5.21167 3.65869,37.64191 0.27097,35.68412 -0.59536,43.14845 -7.32976,63.15266 -8.33924,24.77136 -11.99026,28.87299 -32.03628,35.99009 -6.80145,2.41477 -15.06628,5.44973 -18.36628,6.74434 -5.05633,1.98364 -11.34745,2.42018 -40,2.77552 -18.69999,0.23194 -36.99999,0.6373 -40.66666,0.90082 -3.66667,0.26353 -7.86667,0.24525 -9.33333,-0.0405 z m 88.09443,-11.07828 c 4.34807,-1.50105 10.60556,-3.63109 13.90556,-4.73342 3.3,-1.10233 9.29054,-3.62893 13.31228,-5.61468 6.28202,-3.10174 8.02339,-4.85816 12.35922,-12.46588 4.73263,-8.30394 8.16146,-18.53286 12.00427,-35.81124 1.0238,-4.60325 1.63594,-18.77214 1.64427,-38.0594 0.012,-27.18398 -0.25924,-31.1419 -2.35077,-34.33333 -3.14488,-4.79868 -5.24356,-4.55179 -10.72868,1.26215 -7.1408,7.56889 -9.0954,5.80172 -8.68073,-7.84835 0.39386,-12.96557 -2.11808,-35.82111 -5.13598,-46.73061 -2.36218,-8.5392 -6.02074,-12.13532 -13.83806,-13.60186 -3.62311,-0.6797 -5.4589,-0.24336 -8.26606,1.96476 -1.98472,1.56118 -5.24612,2.95284 -7.24754,3.09258 -3.38486,0.23632 -3.70639,-0.20103 -4.60471,-6.26331 -1.07041,-7.22356 -5.86771,-14.1952 -13.25795,-19.26703 -5.55414,-3.81176 -14.28122,-3.37306 -19.69521,0.99003 -6.17997,4.9804 -9.44766,6.17959 -11.95122,4.38588 -15.89378,-11.38727 -46.61696,-16.4339 -56.31603,-9.25053 -10.59433,7.8464 -17.60697,13.79146 -23.42232,19.85658 l -6.84188,7.13578 -0.74326,19.80494 c -0.8331,22.19838 -1.60808,24.16875 -10.08935,25.65196 -2.64932,0.46332 -6.16381,1.68684 -7.80999,2.71894 -3.42633,2.14817 -7.00696,9.81886 -7.00696,15.01081 0,4.19025 -3.96928,10.31489 -16.24564,25.06723 -7.54869,9.07114 -9.08769,11.73913 -9.08769,15.75432 0,8.16165 6.64728,17.21856 18.97615,25.85496 6.21264,4.35196 9.13264,5.40852 19.00786,6.87772 9.90756,1.474 12.46718,2.40385 16.96796,6.16414 2.91518,2.43558 5.79752,4.42831 6.40522,4.42831 0.60768,0 2.91034,1.5192 5.11703,3.37601 3.72774,3.13668 4.10599,3.20836 5.33563,1.01111 1.70795,-3.05192 2.94076,-1.72592 4.23957,4.56003 0.57422,2.77906 2.00904,9.81336 3.18851,15.63174 1.17947,5.81839 3.18344,12.19368 4.45328,14.16731 3.54787,5.51427 10.12512,10.4318 15.82129,11.82894 2.94008,0.72113 21.80486,1.01685 43.91527,0.6884 34.674,-0.5151 39.5947,-0.86359 46.66666,-3.30499 z M 187.38925,270.33334 c -2.55695,-12.13044 -2.37834,-16.47712 0.8294,-20.18402 l 3.11468,-3.59936 0.0973,14.05836 c 0.0703,10.16022 -0.34988,14.05835 -1.51536,14.05835 -0.88696,0 -2.02368,-1.95 -2.52605,-4.33333 z m 59.97006,-27.84087 c 1.71461,-10.18425 3.24641,-11.89085 2.93013,-3.26447 -0.19294,5.2626 -0.89314,8.09396 -2.1002,8.49247 -1.43564,0.47397 -1.60756,-0.60908 -0.82993,-5.228 z m 72.03096,-7.73367 c -0.42192,-0.68266 -0.21147,-1.58461 0.46765,-2.00433 1.57633,-0.97423 5.4754,0.48904 5.4754,2.05485 0,1.578 -4.96264,1.53582 -5.94305,-0.0505 z m -23.06363,-8.42546 c 0.65244,-1.98111 6.34001,-3.08938 6.34001,-1.23539 0,1.29309 -3.07897,2.90205 -5.55349,2.90205 -0.73446,0 -1.0884,-0.75 -0.78652,-1.66666 z M 277.65523,202.3676 c 0.56868,-1.70601 8.40645,-3.86146 9.62184,-2.64608 0.38488,0.38488 0.0315,1.505 -0.78524,2.48914 -1.89884,2.28797 -9.59249,2.42462 -8.8366,0.15694 z m -48.73857,-15.2287 c -2.80254,-2.80255 1.35512,-16.03691 6.17188,-19.64591 2.28776,-1.71413 4.4369,-2.2332 6.79538,-1.64125 4.27043,1.0718 4.61758,4.80698 0.4494,4.83534 -4.86512,0.0331 -6.44394,1.85291 -8.10769,9.34506 -1.49512,6.73278 -3.28584,9.12989 -5.30897,7.10676 z M 64.929004,244.44354 c -6.3808,-0.59326 -8.616204,-2.52756 -7.19652,-6.2272 0.568511,-1.48152 2.456066,-1.49348 11.142652,-0.0707 5.752006,0.94216 16.908194,1.74481 24.791527,1.78367 13.379357,0.066 17.516557,1.22213 11.999997,3.35353 -2.92041,1.12833 -32.133252,1.96064 -40.737656,1.16065 z M 464.24058,225.00236 c 0.50742,-3.57 8.49943,-7.06748 28.01553,-12.26022 14.05295,-3.73914 20.26988,-4.32019 19.43532,-1.8165 -0.43525,1.30575 -43.13805,16.84156 -46.78418,17.02068 -0.601,0.0295 -0.901,-1.29525 -0.66667,-2.94396 z M 109.92585,157.60094 c -1.42589,-1.56418 -4.92889,-8.21275 -7.78446,-14.7746 -2.855561,-6.56186 -6.564704,-13.63217 -8.242538,-15.71182 -3.002101,-3.72106 -3.082334,-3.73878 -5.04617,-1.11452 -1.854452,2.4781 -2.059808,2.50094 -2.90406,0.32304 -1.174624,-3.03015 2.703317,-8.98971 5.849693,-8.98971 3.610476,0 7.453373,4.88936 12.575555,16.00001 8.59518,18.64402 11.33249,30.60876 5.55198,24.2676 z m 308.7408,-23.72855 c 0,-1.17018 1.00061,-3.82152 2.22359,-5.89185 1.94002,-3.2842 5.21325,-4.73108 25.66666,-11.34559 12.8937,-4.16974 24.21851,-8.21297 25.16625,-8.98497 1.20756,-0.98362 2.1479,-0.97891 3.14254,0.0157 2.11021,2.11021 -2.00186,4.2979 -26.83492,14.27663 -12.08307,4.85537 -23.22173,10.00463 -24.7526,11.4428 -3.37545,3.17108 -4.61152,3.30168 -4.61152,0.48725 z M 162.14598,112.61094 c -1.86772,-4.07966 -4.61464,-8.96699 -6.10425,-10.86073 -2.71903,-3.456675 -3.9494,-15.083542 -1.59618,-15.083542 1.45003,0 11.7683,22.088722 12.86459,27.539732 1.43691,7.14463 -1.59109,6.20913 -5.16416,-1.59546 z M 336.45012,93.916535 c -1.13145,-2.948535 1.5656,-10.287239 6.82955,-18.583201 7.11688,-11.216204 13.44725,-26.060019 11.60044,-27.201408 -1.16886,-0.722393 -0.87758,-1.657584 1.06336,-3.414107 2.18865,-1.980706 3.0402,-2.114574 4.69817,-0.738574 1.11376,0.924334 2.02453,2.957141 2.02396,4.517349 -10e-4,3.942368 -6.27271,16.642743 -15.16257,30.706864 -4.12667,6.528569 -7.50304,12.643159 -7.50304,13.587978 0,2.760307 -2.6055,3.586093 -3.54987,1.125099 z M 247.55555,83.111112 c -1.82631,-1.8263 -0.77315,-8.947794 2.98575,-20.189695 2.13105,-6.373446 4.08926,-12.788083 4.3516,-14.25475 0.26232,-1.466666 1.36873,-2.666666 2.45869,-2.666666 2.4616,0 3.4722,9.228376 1.45028,13.243476 -0.76347,1.516088 -3.25836,7.556524 -5.5442,13.423191 -4.66953,11.984424 -4.49035,11.65622 -5.70212,10.444444 z"
           id="path3929" />
        <path
           style="fill:#4d4d4d;stroke:#4d4d4d;stroke-width:1.33333;stroke-opacity:1"
           d="M 252.66666,373.7035 C 238.49352,370.94114 227.35378,359.70719 224.03035,344.82504 222.47111,337.8428 214.11804,324 211.46405,324 c -0.88548,0 -5.44431,-2.7 -10.13072,-6 -6.47536,-4.55972 -9.73514,-6 -13.57968,-6 -9.53046,0 -21.68146,-6.1436 -31.30779,-15.82934 -10.03949,-10.10146 -13.70808,-16.91591 -13.74992,-25.54064 -0.0331,-6.82614 0.55967,-7.84176 14.11475,-24.18351 7.41278,-8.93672 9.8014,-12.86259 10.5461,-17.33333 1.8702,-11.22752 9.25226,-20.93834 18.32007,-24.09939 5.64183,-1.96676 6.78953,-5.57763 7.40761,-23.30553 l 0.568,-16.29176 12.17376,-11.75683 c 6.69558,-6.46625 15.85224,-13.98496 20.34817,-16.70824 7.6112,-4.61028 8.89732,-4.94982 18.66667,-4.92815 11.98653,0.0266 29.93425,2.74218 40.07903,6.06416 6.431,2.10588 7.30461,2.11219 12.36032,0.0893 3.1305,-1.25259 9.24979,-2.18154 14.41322,-2.18803 l 8.97301,-0.0107 10.66667,11.14135 10.66667,11.14133 10.21048,0.84255 c 15.21924,1.25585 15.90954,1.78457 20.87921,15.99179 2.93581,8.39288 4.2948,14.75281 4.32463,20.23886 0.0239,4.4 0.78065,11.9 1.68162,16.66667 1.5151,8.01568 1.88599,8.64677 4.93776,8.40185 6.22088,-0.49926 9.29867,0.98722 12.70659,6.13691 3.40614,5.14705 3.41242,5.21167 3.65869,37.64191 0.27097,35.68412 -0.59536,43.14845 -7.32976,63.15266 -8.33924,24.77136 -11.99026,28.87299 -32.03628,35.99009 -6.80145,2.41477 -15.06628,5.44973 -18.36628,6.74434 -5.05633,1.98364 -11.34745,2.42018 -40,2.77552 -18.69999,0.23194 -36.99999,0.6373 -40.66666,0.90082 -3.66667,0.26353 -7.86667,0.24525 -9.33333,-0.0405 z m 88.09443,-11.07828 c 4.34807,-1.50105 10.60556,-3.63109 13.90556,-4.73342 3.3,-1.10233 9.29054,-3.62893 13.31228,-5.61468 6.28202,-3.10174 8.02339,-4.85816 12.35922,-12.46588 4.73263,-8.30394 8.16146,-18.53286 12.00427,-35.81124 1.0238,-4.60325 1.63594,-18.77214 1.64427,-38.0594 0.012,-27.18398 -0.25924,-31.1419 -2.35077,-34.33333 -3.14488,-4.79868 -5.24356,-4.55179 -10.72868,1.26215 -7.1408,7.56889 -9.0954,5.80172 -8.68073,-7.84835 0.39386,-12.96557 -2.11808,-35.82111 -5.13598,-46.73061 -2.36218,-8.5392 -6.02074,-12.13532 -13.83806,-13.60186 -3.62311,-0.6797 -5.4589,-0.24336 -8.26606,1.96476 -1.98472,1.56118 -5.24612,2.95284 -7.24754,3.09258 -3.38486,0.23632 -3.70639,-0.20103 -4.60471,-6.26331 -1.07041,-7.22356 -5.86771,-14.1952 -13.25795,-19.26703 -5.55414,-3.81176 -14.28122,-3.37306 -19.69521,0.99003 -6.17997,4.9804 -9.44766,6.17959 -11.95122,4.38588 -15.89378,-11.38727 -46.61696,-16.4339 -56.31603,-9.25053 -10.59433,7.8464 -17.60697,13.79146 -23.42232,19.85658 l -6.84188,7.13578 -0.74326,19.80494 c -0.8331,22.19838 -1.60808,24.16875 -10.08935,25.65196 -2.64932,0.46332 -6.16381,1.68684 -7.80999,2.71894 -3.42633,2.14817 -7.00696,9.81886 -7.00696,15.01081 0,4.19025 -3.96928,10.31489 -16.24564,25.06723 -7.54869,9.07114 -9.08769,11.73913 -9.08769,15.75432 0,8.16165 6.64728,17.21856 18.97615,25.85496 6.21264,4.35196 9.13264,5.40852 19.00786,6.87772 9.90756,1.474 12.46718,2.40385 16.96796,6.16414 2.91518,2.43558 5.79752,4.42831 6.40522,4.42831 0.60768,0 2.91034,1.5192 5.11703,3.37601 3.72774,3.13668 4.10599,3.20836 5.33563,1.01111 1.70795,-3.05192 2.94076,-1.72592 4.23957,4.56003 0.57422,2.77906 2.00904,9.81336 3.18851,15.63174 1.17947,5.81839 3.18344,12.19368 4.45328,14.16731 3.54787,5.51427 10.12512,10.4318 15.82129,11.82894 2.94008,0.72113 21.80486,1.01685 43.91527,0.6884 34.674,-0.5151 39.5947,-0.86359 46.66666,-3.30499 z M 187.38925,270.33334 c -2.55695,-12.13044 -2.37834,-16.47712 0.8294,-20.18402 l 3.11468,-3.59936 0.0973,14.05836 c 0.0703,10.16022 -0.34988,14.05835 -1.51536,14.05835 -0.88696,0 -2.02368,-1.95 -2.52605,-4.33333 z m 59.97006,-27.84087 c 1.71461,-10.18425 3.24641,-11.89085 2.93013,-3.26447 -0.19294,5.2626 -0.89314,8.09396 -2.1002,8.49247 -1.43564,0.47397 -1.60756,-0.60908 -0.82993,-5.228 z m 72.03096,-7.73367 c -0.42192,-0.68266 -0.21147,-1.58461 0.46765,-2.00433 1.57633,-0.97423 5.4754,0.48904 5.4754,2.05485 0,1.578 -4.96264,1.53582 -5.94305,-0.0505 z m -23.06363,-8.42546 c 0.65244,-1.98111 6.34001,-3.08938 6.34001,-1.23539 0,1.29309 -3.07897,2.90205 -5.55349,2.90205 -0.73446,0 -1.0884,-0.75 -0.78652,-1.66666 z M 277.65523,202.3676 c 0.56868,-1.70601 8.40645,-3.86146 9.62184,-2.64608 0.38488,0.38488 0.0315,1.505 -0.78524,2.48914 -1.89884,2.28797 -9.59249,2.42462 -8.8366,0.15694 z m -48.73857,-15.2287 c -2.80254,-2.80255 1.35512,-16.03691 6.17188,-19.64591 2.28776,-1.71413 4.4369,-2.2332 6.79538,-1.64125 4.27043,1.0718 4.61758,4.80698 0.4494,4.83534 -4.86512,0.0331 -6.44394,1.85291 -8.10769,9.34506 -1.49512,6.73278 -3.28584,9.12989 -5.30897,7.10676 z M 64.929004,244.44354 c -6.3808,-0.59326 -8.616204,-2.52756 -7.19652,-6.2272 0.568511,-1.48152 2.456066,-1.49348 11.142652,-0.0707 5.752006,0.94216 16.908194,1.74481 24.791527,1.78367 13.379357,0.066 17.516557,1.22213 11.999997,3.35353 -2.92041,1.12833 -32.133252,1.96064 -40.737656,1.16065 z M 464.24058,225.00236 c 0.50742,-3.57 8.49943,-7.06748 28.01553,-12.26022 14.05295,-3.73914 20.26988,-4.32019 19.43532,-1.8165 -0.43525,1.30575 -43.13805,16.84156 -46.78418,17.02068 -0.601,0.0295 -0.901,-1.29525 -0.66667,-2.94396 z M 109.92585,157.60094 c -1.42589,-1.56418 -4.92889,-8.21275 -7.78446,-14.7746 -2.855561,-6.56186 -6.564704,-13.63217 -8.242538,-15.71182 -3.002101,-3.72106 -3.082334,-3.73878 -5.04617,-1.11452 -1.854452,2.4781 -2.059808,2.50094 -2.90406,0.32304 -1.174624,-3.03015 2.703317,-8.98971 5.849693,-8.98971 3.610476,0 7.453373,4.88936 12.575555,16.00001 8.59518,18.64402 11.33249,30.60876 5.55198,24.2676 z m 308.7408,-23.72855 c 0,-1.17018 1.00061,-3.82152 2.22359,-5.89185 1.94002,-3.2842 5.21325,-4.73108 25.66666,-11.34559 12.8937,-4.16974 24.21851,-8.21297 25.16625,-8.98497 1.20756,-0.98362 2.1479,-0.97891 3.14254,0.0157 2.11021,2.11021 -2.00186,4.2979 -26.83492,14.27663 -12.08307,4.85537 -23.22173,10.00463 -24.7526,11.4428 -3.37545,3.17108 -4.61152,3.30168 -4.61152,0.48725 z M 162.14598,112.61094 c -1.86772,-4.07966 -4.61464,-8.96699 -6.10425,-10.86073 -2.71903,-3.456675 -3.9494,-15.083542 -1.59618,-15.083542 1.45003,0 11.7683,22.088722 12.86459,27.539732 1.43691,7.14463 -1.59109,6.20913 -5.16416,-1.59546 z M 336.45012,93.916535 c -1.13145,-2.948535 1.5656,-10.287239 6.82955,-18.583201 7.11688,-11.216204 13.44725,-26.060019 11.60044,-27.201408 -1.16886,-0.722393 -0.87758,-1.657584 1.06336,-3.414107 2.18865,-1.980706 3.0402,-2.114574 4.69817,-0.738574 1.11376,0.924334 2.02453,2.957141 2.02396,4.517349 -10e-4,3.942368 -6.27271,16.642743 -15.16257,30.706864 -4.12667,6.528569 -7.50304,12.643159 -7.50304,13.587978 0,2.760307 -2.6055,3.586093 -3.54987,1.125099 z M 247.55555,83.111112 c -1.82631,-1.8263 -0.77315,-8.947794 2.98575,-20.189695 2.13105,-6.373446 4.08926,-12.788083 4.3516,-14.25475 0.26232,-1.466666 1.36873,-2.666666 2.45869,-2.666666 2.4616,0 3.4722,9.228376 1.45028,13.243476 -0.76347,1.516088 -3.25836,7.556524 -5.5442,13.423191 -4.66953,11.984424 -4.49035,11.65622 -5.70212,10.444444 z"
           id="path3927" />
      </g>
      <path
         style="fill:#ffffff;stroke:#4d4d4d;stroke-width:0.00831133;stroke-linecap:round;stroke-linejoin:round;stroke-miterlimit:4;stroke-dasharray:none;stroke-opacity:1"
         d="m 75.173281,99.326677 c -0.61944,-0.06449 -1.174408,-0.322334 -1.732981,-0.805183 -0.736428,-0.636593 -0.881838,-0.949243 -1.400932,-3.012178 -0.499559,-1.985293 -0.638783,-2.296475 -1.012362,-2.26273 -0.23823,0.02154 -0.993494,-0.34336 -1.678363,-0.810847 -0.88025,-0.600856 -1.654696,-0.923327 -2.642309,-1.100238 -1.673148,-0.29971 -3.283304,-1.260303 -4.174344,-2.490348 -0.97485,-1.34574 -0.854644,-1.938147 0.810426,-3.99405 0.836478,-1.032819 1.520855,-2.122437 1.65743,-2.638848 0.410101,-1.550638 0.710993,-1.952654 1.744977,-2.331424 1.238962,-0.453855 1.523236,-0.99791 1.53946,-2.946273 0.02281,-2.738085 0.245427,-3.386944 1.567518,-4.568669 2.133518,-1.907 2.968152,-2.35831 4.361347,-2.35831 1.394357,0 3.134601,0.457586 4.640752,1.220258 0.949624,0.480864 1.048401,0.490768 1.64928,0.165383 1.623714,-0.879268 1.843966,-0.955384 2.377258,-0.821534 0.713531,0.179084 2.058013,1.656676 2.232959,2.454029 0.07364,0.335656 0.172008,0.733978 0.218582,0.885161 0.115488,0.374867 1.018948,0.346734 1.540809,-0.04798 0.654878,-0.495324 1.388483,-0.398629 2.058435,0.271322 0.74531,0.74531 1.103352,2.430206 1.305994,6.145795 0.159808,2.930255 0.329327,3.162755 1.554414,2.131912 1.143547,-0.962234 1.226087,-0.666597 1.221369,4.374732 -0.0037,3.953515 -0.05922,4.635013 -0.505182,6.200899 -0.633119,2.223047 -1.492822,3.812111 -2.387283,4.412623 -0.383672,0.257585 -1.620633,0.770969 -2.748801,1.140859 -1.960853,0.642898 -2.254665,0.677109 -6.669206,0.776518 -2.539892,0.05719 -5.028052,0.0613 -5.529247,0.0091 z M 67.044948,87.471968 c 0.208812,-0.544153 0.156363,-3.830336 -0.06113,-3.830336 -0.107037,0 -0.373168,0.272132 -0.591402,0.604737 -0.403624,0.615159 -0.468609,1.468247 -0.214873,2.820778 0.146706,0.782005 0.635185,1.009981 0.867407,0.404821 z m 7.723732,-4.071329 c 0.0942,-0.557538 0.06107,-0.991815 -0.08696,-1.139836 -0.337399,-0.337399 -0.444754,-0.15766 -0.605263,1.013376 -0.115303,0.841226 -0.07917,1.027165 0.19963,1.027165 0.227111,0 0.391068,-0.299797 0.492588,-0.900705 z m 9.78217,-0.944952 c 0,-0.343757 -0.592407,-0.640842 -0.899462,-0.451072 -0.420253,0.259734 -0.190476,0.757399 0.349703,0.757399 0.323307,0 0.549759,-0.12618 0.549759,-0.306327 z m -2.906728,-1.199025 c 0.05177,-0.155308 -0.178631,-0.253878 -0.593413,-0.253878 -0.626692,0 -0.902335,0.362111 -0.546502,0.717944 0.186576,0.186576 1.038664,-0.160314 1.139915,-0.464066 z m -2.153224,-3.000079 c 0.219971,-0.265051 0.204099,-0.353155 -0.08352,-0.463523 -0.529352,-0.203132 -1.453652,0.09261 -1.453652,0.465111 0,0.434454 1.176295,0.433239 1.537171,-0.0016 z M 72.67526,75.53155 c 0.192392,-0.539465 0.550161,-1.037582 0.855713,-1.191406 0.629518,-0.316913 0.696386,-0.579289 0.223636,-0.877491 -0.938741,-0.592145 -2.1781,0.661975 -2.1781,2.204038 0,1.28824 0.618236,1.212199 1.098751,-0.135141 z"
         id="path1193" />
      <path
         style="fill:#ffffff;stroke:#4d4d4d;stroke-width:0.00831133;stroke-linecap:round;stroke-linejoin:round;stroke-miterlimit:4;stroke-dasharray:none;stroke-opacity:1"
         d="m 75.173281,99.327883 c -0.61876,-0.06523 -1.175739,-0.324691 -1.735211,-0.808318 -0.73732,-0.63736 -0.885473,-0.954063 -1.40911,-3.012178 -0.490948,-1.929635 -0.651314,-2.294006 -0.996059,-2.263145 -0.225996,0.02024 -1.005752,-0.349742 -1.732793,-0.822164 -0.727038,-0.472421 -1.675016,-0.918903 -2.106618,-0.992184 -2.242687,-0.380783 -4.007699,-1.395241 -4.860242,-2.793469 -0.724913,-1.188907 -0.573582,-1.728271 1.105376,-3.939706 0.956104,-1.25933 1.589368,-2.320396 1.673961,-2.804808 0.205089,-1.174391 0.630766,-1.693643 1.672135,-2.039705 1.195347,-0.397235 1.483241,-0.957374 1.499563,-2.917648 0.02275,-2.733476 0.245303,-3.385473 1.566809,-4.590476 2.005219,-1.828437 2.954901,-2.336503 4.367406,-2.336503 1.389443,0 3.130952,0.458449 4.635402,1.220258 0.949624,0.480864 1.048401,0.490768 1.64928,0.165383 1.623714,-0.879268 1.843966,-0.955384 2.377258,-0.821534 0.713531,0.179084 2.058013,1.656676 2.232959,2.454029 0.07364,0.335656 0.172008,0.733978 0.218582,0.885161 0.115488,0.374867 1.018948,0.346734 1.540809,-0.04798 0.615839,-0.465796 1.307727,-0.409258 1.970741,0.161044 0.746287,0.641927 1.156939,2.361859 1.324991,5.549469 0.198406,3.763369 0.304983,3.947649 1.635559,2.828041 1.129623,-0.950513 1.213631,-0.645787 1.208921,4.385207 -0.0037,3.953515 -0.05922,4.635013 -0.505182,6.200899 -0.633119,2.223047 -1.492822,3.812111 -2.387283,4.412623 -0.383672,0.257585 -1.620633,0.771625 -2.748801,1.142314 -1.96266,0.644885 -2.250601,0.678464 -6.669206,0.777725 -2.539892,0.05706 -5.028052,0.06051 -5.529247,0.0077 z M 67.044948,87.471968 c 0.171701,-0.447445 0.175056,-3.830336 0.0038,-3.830336 -0.07132,0 -0.315426,0.222652 -0.542446,0.494784 -0.672201,0.805773 -0.503042,3.683394 0.216524,3.683394 0.103754,0 0.248706,-0.15653 0.32212,-0.347842 z m 7.679629,-3.95297 c 0.21799,-1.343306 -0.333044,-2.022684 -0.591682,-0.729494 -0.212982,1.064906 -0.164606,1.51184 0.163642,1.51184 0.174633,0 0.354404,-0.328576 0.42804,-0.782346 z m 9.826273,-1.061191 c 0,-0.311846 -0.75637,-0.625354 -0.976836,-0.404887 -0.312545,0.312547 -0.07371,0.709094 0.427077,0.709094 0.321471,0 0.549759,-0.12632 0.549759,-0.304207 z M 81.560032,81.31097 c 0.08126,-0.211767 -0.04752,-0.308186 -0.411618,-0.308186 -0.559972,0 -0.884573,0.305712 -0.678548,0.639066 0.171638,0.277717 0.94692,0.04241 1.090166,-0.33088 z m -2.069134,-3.054387 c 0.219971,-0.265051 0.204099,-0.353155 -0.08352,-0.463523 -0.529352,-0.203132 -1.453652,0.09261 -1.453652,0.465111 0,0.434454 1.176295,0.433239 1.537171,-0.0016 z m -6.859937,-2.726147 c 0.171752,-0.515255 0.474808,-0.994476 0.673457,-1.064938 0.714753,-0.253523 0.93436,-0.536315 0.666822,-0.858678 -0.679411,-0.81864 -2.09073,0.110217 -2.320701,1.527365 -0.27083,1.668931 0.458005,1.963499 0.980422,0.396251 z"
         id="path1195" />
      <path
         style="fill:#ffffff;stroke:#4d4d4d;stroke-width:0.00831133;stroke-linecap:round;stroke-linejoin:round;stroke-miterlimit:4;stroke-dasharray:none;stroke-opacity:1"
         d="m 75.010877,99.280179 c -1.611455,-0.243128 -2.375169,-1.18346 -2.953414,-3.636428 -0.450834,-1.912475 -0.801764,-2.645746 -1.16019,-2.424226 -0.104275,0.06445 -0.803722,-0.281877 -1.554324,-0.76961 -0.750601,-0.48773 -1.717857,-0.94674 -2.149459,-1.020021 -1.754375,-0.297874 -2.457794,-0.581449 -3.514762,-1.416934 -2.221791,-1.756222 -2.282586,-2.651818 -0.351803,-5.182272 0.948574,-1.243185 1.543574,-2.272911 1.776688,-3.0748 0.362146,-1.245729 0.802888,-1.699321 1.917565,-1.973453 0.859589,-0.211396 1.254961,-1.114303 1.266349,-2.891933 0.01752,-2.734481 0.233952,-3.334816 1.673423,-4.641572 0.707139,-0.64194 1.711822,-1.421511 2.232636,-1.732383 0.844468,-0.504063 1.118108,-0.553955 2.528896,-0.4611 1.044834,0.06877 2.067287,0.310126 3.011341,0.710843 2.054831,0.872204 2.493085,0.91436 3.327673,0.32008 1.12703,-0.802516 2.057506,-0.683393 3.060443,0.391811 0.461143,0.494368 0.948026,1.305814 1.081961,1.803214 0.194453,0.722143 0.344112,0.904362 0.742773,0.904362 0.274589,0 0.691343,-0.145288 0.926115,-0.322863 0.615839,-0.465796 1.307727,-0.409258 1.970741,0.161044 0.746287,0.641927 1.156939,2.361859 1.324991,5.549469 0.199245,3.779265 0.241853,3.855577 1.582034,2.833372 1.19801,-0.913765 1.267174,-0.673796 1.262446,4.379876 -0.0037,3.953515 -0.05922,4.635013 -0.505182,6.200899 -0.633119,2.223047 -1.492822,3.812111 -2.387283,4.412623 -0.383672,0.257585 -1.620633,0.771625 -2.748801,1.142314 -1.956699,0.642927 -2.264013,0.679183 -6.669206,0.786832 -2.539892,0.06207 -5.101135,0.03995 -5.691651,-0.04914 z M 67.039826,87.325026 c 0.171362,-0.639437 0.178736,-3.683394 0.0089,-3.683394 -0.07132,0 -0.315426,0.222652 -0.542446,0.494784 -0.287039,0.344075 -0.414994,0.850842 -0.420082,1.663737 -0.01045,1.670669 0.637054,2.706076 0.953604,1.524873 z m 7.667969,-3.868946 c 0.107402,-0.414481 0.09527,-0.861772 -0.02941,-1.084565 -0.185989,-0.332332 -0.241268,-0.302704 -0.447564,0.239888 -0.319405,0.840086 -0.303088,1.749165 0.02941,1.638331 0.145629,-0.04854 0.347032,-0.405685 0.447564,-0.793654 z m 9.843055,-0.998273 c 0,-0.311846 -0.75637,-0.625354 -0.976836,-0.404887 -0.312545,0.312547 -0.07371,0.709094 0.427077,0.709094 0.321471,0 0.549759,-0.12632 0.549759,-0.304207 z m -3.078657,-1.140463 c 0,-0.229214 -0.160412,-0.321545 -0.47756,-0.274881 -0.704022,0.103595 -0.779423,0.620033 -0.09052,0.620033 0.369548,0 0.568084,-0.120624 0.568084,-0.345152 z m -1.981295,-3.060761 c 0.219971,-0.265051 0.204099,-0.353155 -0.08352,-0.463523 -0.529352,-0.203132 -1.453652,0.09261 -1.453652,0.465111 0,0.434454 1.176295,0.433239 1.537171,-0.0016 z m -6.905625,-2.661105 c 0.250618,-0.656235 0.570232,-1.079489 0.913804,-1.210114 0.761315,-0.289452 0.573673,-0.969272 -0.267538,-0.969272 -0.798066,0 -1.65503,1.13651 -1.65503,2.194909 0,1.344391 0.4923,1.336816 1.008764,-0.01553 z"
         id="path1197" />
      <path
         style="fill:#ffdf00;fill-opacity:1;stroke:#4d4d4d;stroke-width:0.00799999;stroke-linecap:round;stroke-linejoin:round;stroke-miterlimit:4;stroke-dasharray:none;stroke-opacity:1"
         d="m 75.010877,99.280179 c -1.600668,-0.241501 -2.343036,-1.155772 -2.970792,-3.658706 -0.497207,-1.982425 -0.797557,-2.615327 -1.140542,-2.403351 -0.103031,0.06368 -0.821655,-0.284842 -1.596948,-0.774483 -0.905872,-0.572108 -1.870906,-0.975529 -2.700411,-1.128871 -1.514833,-0.280032 -1.858465,-0.440489 -3.110561,-1.452459 -2.008846,-1.623587 -2.050968,-2.563604 -0.222504,-4.965573 0.839565,-1.102903 1.541441,-2.308895 1.816185,-3.120652 0.419491,-1.239433 0.520078,-1.356738 1.591368,-1.85584 0.628965,-0.293027 1.21041,-0.688854 1.292103,-0.879616 0.08169,-0.190762 0.225777,-1.425284 0.320191,-2.743388 0.199784,-2.789158 0.250174,-2.882714 2.604212,-4.835038 1.562264,-1.295667 1.647888,-1.335095 3.074466,-1.415703 1.43674,-0.08118 2.675038,0.225078 5.247963,1.297948 0.655179,0.273201 0.807706,0.248542 1.907624,-0.308398 0.82768,-0.419092 1.368131,-0.562015 1.756564,-0.464524 0.789395,0.198123 2.042379,1.663623 2.327412,2.722152 0.191275,0.710346 0.341919,0.89208 0.739466,0.89208 0.274589,0 0.691343,-0.145288 0.926115,-0.322863 0.615839,-0.465796 1.307727,-0.409258 1.970741,0.161044 0.72498,0.623602 1.14453,2.318689 1.319115,5.329565 0.230008,3.966657 0.275561,4.054253 1.58791,3.053276 1.19801,-0.913765 1.267174,-0.673796 1.262446,4.379876 -0.0037,3.953515 -0.05922,4.635013 -0.505182,6.200899 -0.633119,2.223047 -1.492822,3.812111 -2.387283,4.412623 -0.383672,0.257585 -1.620633,0.771625 -2.748801,1.142314 -1.956699,0.642927 -2.264013,0.679183 -6.669206,0.786832 -2.539892,0.06207 -5.101135,0.03995 -5.691651,-0.04914 z M 67.039826,87.325026 c 0.211984,-0.791017 0.158871,-3.463491 -0.06883,-3.463491 -0.421306,0 -0.892087,1.004689 -0.892087,1.903799 0,1.62256 0.657897,2.69041 0.960919,1.559692 z m 7.667969,-3.868946 c 0.107402,-0.414481 0.09527,-0.861772 -0.02941,-1.084565 -0.185989,-0.332332 -0.241268,-0.302704 -0.447564,0.239888 -0.319405,0.840086 -0.303088,1.749165 0.02941,1.638331 0.145629,-0.04854 0.347032,-0.405685 0.447564,-0.793654 z m 9.843055,-0.906233 c 0,-0.333068 -0.828381,-0.70835 -0.9892,-0.448138 -0.07495,0.121275 -0.07512,0.319456 -2.65e-4,0.440402 0.174088,0.281683 0.989568,0.28806 0.989568,0.0077 z m -3.078657,-1.232503 c 0,-0.229214 -0.160412,-0.321545 -0.47756,-0.274881 -0.704022,0.103595 -0.779423,0.620033 -0.09052,0.620033 0.369548,0 0.568084,-0.120624 0.568084,-0.345152 z m -2.007971,-3.028619 c 0.301366,-0.363125 0.106844,-0.584504 -0.513596,-0.584504 -0.469294,0 -0.996899,0.372427 -0.996899,0.703693 0,0.294577 1.248888,0.19603 1.510495,-0.119189 z m -6.78639,-2.897698 c 0.229132,-0.534543 0.603448,-1.008237 0.861417,-1.090115 0.485084,-0.153959 0.610375,-0.65363 0.223803,-0.892543 -0.807963,-0.499351 -2.184117,0.901589 -2.18572,2.22509 -0.0016,1.302385 0.484182,1.195374 1.1005,-0.242432 z"
         id="path1199" />
    </g>
    <path
       sodipodi:type="star"
       style="fill:none;fill-opacity:1;stroke:#4d4d4d;stroke-width:0.332044;stroke-linecap:round;stroke-linejoin:round;stroke-miterlimit:4;stroke-dasharray:none;stroke-opacity:1"
       id="path1274"
       sodipodi:sides="4"
       sodipodi:cx="120.72735"
       sodipodi:cy="45.080338"
       sodipodi:r1="14.61523"
       sodipodi:r2="10.334528"
       sodipodi:arg1="0"
       sodipodi:arg2="0.78539816"
       inkscape:flatsided="true"
       inkscape:rounded="0"
       inkscape:randomized="0"
       d="M 135.34258,45.080338 120.72735,59.695567 106.11212,45.080338 120.72735,30.465108 Z" />
    <text
       xml:space="preserve"
       id="text1276"
       style="font-size:7.05555999999999983px;line-height:1.25;font-family:sans-serif;-inkscape-font-specification:'sans-serif, Normal';white-space:pre;shape-inside:url(#rect1278);fill:#4d4d4d;"
       transform="translate(-5.2295265,-8.6656176)"><tspan
         x="118.30859"
         y="54.376455"><tspan
           style="font-size:3.52778px;fill:#4d4d4d">Decision</tspan></tspan></text>
    <g
       id="g1310">
      <rect
         style="fill:none;fill-opacity:1;stroke:#4d4d4d;stroke-width:0.499999;stroke-linecap:round;stroke-linejoin:round;stroke-miterlimit:4;stroke-dasharray:none;stroke-opacity:1"
         id="rect1282"
         width="7.2568345"
         height="7.2568345"
         x="171.08536"
         y="31.666185" />
      <text
         xml:space="preserve"
         style="font-size:7.05555999999999983px;line-height:1.25;font-family:sans-serif;-inkscape-font-specification:'sans-serif, Normal';stroke-width:0.264583;fill:#008000;"
         x="171.96498"
         y="37.823502"
         id="text1286"><tspan
           sodipodi:role="line"
           id="tspan1284"
           x="171.96498"
           y="37.823502"
           style="stroke-width:0.264583;fill:#008000;">âœ“</tspan></text>
    </g>
    <g
       id="g1315"
       transform="translate(4.1781775,5.0577938)">
      <rect
         style="fill:none;fill-opacity:1;stroke:#4d4d4d;stroke-width:0.499999;stroke-linecap:round;stroke-linejoin:round;stroke-miterlimit:4;stroke-dasharray:none;stroke-opacity:1"
         id="rect1282-4"
         width="7.2568345"
         height="7.2568345"
         x="170.88608"
         y="45.458366" />
      <text
         xml:space="preserve"
         style="font-size:7.05556px;line-height:1.25;font-family:sans-serif;-inkscape-font-specification:'sans-serif, Normal';stroke-width:0.264583"
         x="171.41522"
         y="51.127701"
         id="text1305"><tspan
           sodipodi:role="line"
           id="tspan1303"
           x="171.41522"
           y="51.127701"
           style="font-size:9.87778px;fill:#ff0000;stroke-width:0.264583">ð„‚</tspan></text>
    </g>
    <path
       style="fill:#b3b3b3;stroke:#4d4d4d;stroke-width:1;stroke-linecap:butt;stroke-linejoin:miter;stroke-opacity:1;stroke-miterlimit:4;stroke-dasharray:none;marker-end:url(#Arrow2Mend)"
       d="m 115.00983,87.301918 h 25.94868"
       id="path1317" />
    <g
       id="g1733"
       transform="matrix(0.26315789,0,0,0.26315789,168.47096,66.654663)"
       style="fill:#d4af37;fill-opacity:1;stroke-width:1.00157;stroke-miterlimit:4;stroke-dasharray:none">
      <path
         d="M 32,0 C 30.979,0 29.975,0.076 28.985,0.21 27.953,0.072 26.972,0 26,0 18.638,0 11.999,3.571 7.34,9.264 7.293,9.306 7.259,9.356 7.221,9.406 5.736,11.245 4.46,13.304 3.428,15.532 3.402,15.581 3.379,15.629 3.36,15.682 2.649,17.239 2.056,18.875 1.6,20.579 1.555,20.675 1.535,20.78 1.522,20.889 0.861,23.465 0.5,26.185 0.5,29 c 0,4.404 0.872,8.579 2.423,12.321 0.014,0.04 0.027,0.078 0.046,0.116 0.93,2.218 2.1,4.28 3.473,6.145 0.035,0.048 0.064,0.099 0.107,0.14 1.39,1.865 2.983,3.526 4.74,4.942 0.05,0.055 0.11,0.096 0.172,0.139 C 15.588,56.075 20.599,58 26,58 26.972,58 27.953,57.928 28.985,57.79 29.975,57.924 30.979,58 32,58 46.061,58 57.5,44.991 57.5,29 57.5,13.009 46.061,0 32,0 Z m 17.217,20.202 c 0.523,-0.182 1.091,0.099 1.27,0.622 0.222,0.646 0.419,1.313 0.587,1.98 0.135,0.536 -0.19,1.079 -0.726,1.214 -0.082,0.021 -0.164,0.03 -0.245,0.03 -0.447,0 -0.854,-0.302 -0.969,-0.756 -0.155,-0.614 -0.336,-1.227 -0.54,-1.82 -0.178,-0.522 0.1,-1.091 0.623,-1.27 z M 5.428,42 h 3.788 c 0.157,0.354 0.318,0.705 0.487,1.051 0.073,0.149 0.149,0.296 0.225,0.444 0.205,0.402 0.417,0.797 0.638,1.186 0.082,0.145 0.161,0.292 0.246,0.436 0.177,0.299 0.362,0.592 0.548,0.884 H 7.774 C 6.891,44.754 6.109,43.415 5.428,42 Z M 4.968,17 H 8.795 C 8.62,17.437 8.454,17.879 8.297,18.327 8.254,18.451 8.21,18.574 8.168,18.698 8.024,19.128 7.89,19.562 7.763,20 H 3.857 c 0.318,-1.031 0.69,-2.031 1.111,-3 z m 3.557,-6 h 3.503 c -0.122,0.175 -0.245,0.349 -0.364,0.527 -0.295,0.443 -0.58,0.894 -0.852,1.356 -0.084,0.143 -0.164,0.291 -0.246,0.436 -0.221,0.389 -0.434,0.785 -0.638,1.186 C 9.853,14.653 9.776,14.799 9.703,14.949 9.695,14.966 9.686,14.983 9.678,15 H 5.929 c 0.757,-1.427 1.629,-2.762 2.596,-4 z m 16.257,-0.772 c -0.146,0.074 -0.3,0.109 -0.453,0.109 -0.364,0 -0.715,-0.199 -0.892,-0.546 -0.251,-0.492 -0.056,-1.094 0.437,-1.345 0.623,-0.318 1.267,-0.602 1.916,-0.845 0.516,-0.193 1.094,0.068 1.287,0.586 0.194,0.517 -0.069,1.093 -0.586,1.287 -0.578,0.217 -1.153,0.47 -1.709,0.754 z m 0.476,38.907 c -0.176,0.347 -0.528,0.547 -0.893,0.547 -0.152,0 -0.307,-0.035 -0.452,-0.108 -0.615,-0.312 -1.224,-0.665 -1.809,-1.048 -0.462,-0.302 -0.591,-0.922 -0.289,-1.384 0.304,-0.461 0.922,-0.591 1.385,-0.289 0.523,0.343 1.068,0.659 1.619,0.938 0.492,0.25 0.689,0.852 0.439,1.344 z M 13.644,33.94 c 0.534,-0.136 1.079,0.193 1.212,0.729 0.153,0.613 0.333,1.226 0.536,1.82 0.178,0.523 -0.101,1.091 -0.624,1.269 -0.107,0.037 -0.216,0.054 -0.323,0.054 -0.416,0 -0.805,-0.262 -0.946,-0.678 -0.221,-0.648 -0.417,-1.315 -0.583,-1.982 -0.134,-0.536 0.192,-1.078 0.728,-1.212 z M 12.167,29.021 V 29 c 0,-0.682 0.027,-1.368 0.08,-2.037 0.044,-0.55 0.523,-0.958 1.076,-0.918 0.551,0.044 0.961,0.526 0.918,1.076 -0.049,0.618 -0.074,1.25 -0.074,1.879 0,0.552 -0.448,1.011 -1,1.011 -0.552,0 -1,-0.437 -1,-0.99 z m 3.211,-7.47 c -0.142,0.417 -0.53,0.679 -0.947,0.679 -0.106,0 -0.215,-0.018 -0.321,-0.053 -0.523,-0.178 -0.803,-0.745 -0.626,-1.269 0.221,-0.65 0.472,-1.299 0.747,-1.928 0.222,-0.507 0.81,-0.736 1.317,-0.516 0.506,0.221 0.737,0.811 0.516,1.317 -0.253,0.578 -0.483,1.174 -0.686,1.77 z m 1.137,19.747 c 0.457,-0.309 1.079,-0.189 1.388,0.27 0.353,0.523 0.732,1.033 1.127,1.515 0.35,0.427 0.288,1.057 -0.139,1.408 -0.186,0.152 -0.411,0.227 -0.634,0.227 -0.289,0 -0.576,-0.125 -0.774,-0.366 -0.434,-0.53 -0.851,-1.09 -1.239,-1.665 -0.307,-0.458 -0.187,-1.08 0.271,-1.389 z M 19.004,14.95 c -0.198,0.242 -0.485,0.367 -0.775,0.367 -0.223,0 -0.446,-0.074 -0.632,-0.226 -0.428,-0.35 -0.491,-0.979 -0.142,-1.407 0.441,-0.541 0.91,-1.06 1.391,-1.545 0.391,-0.391 1.023,-0.393 1.415,-0.004 0.392,0.39 0.394,1.022 0.004,1.415 -0.436,0.438 -0.86,0.909 -1.261,1.4 z M 2.5,29 c 0,-0.674 0.036,-1.338 0.078,-2 H 6.565 C 6.564,27.016 6.564,27.032 6.563,27.048 6.526,27.694 6.5,28.343 6.5,29 c 0,0.335 0.012,0.667 0.022,1 H 2.539 C 2.528,29.666 2.5,29.337 2.5,29 Z m 4.136,3 c 0.038,0.421 0.087,0.839 0.141,1.255 0.004,0.03 0.006,0.061 0.01,0.092 0.074,0.556 0.164,1.107 0.265,1.653 H 3.108 C 2.913,34.018 2.759,33.019 2.66,32 Z m 0.62,-10 c -0.026,0.118 -0.048,0.238 -0.072,0.356 -0.027,0.132 -0.055,0.263 -0.081,0.395 -0.122,0.627 -0.23,1.26 -0.315,1.902 -0.004,0.03 -0.006,0.061 -0.01,0.092 C 6.766,24.83 6.759,24.915 6.748,25 H 2.779 c 0.132,-1.018 0.299,-2.022 0.528,-3 z m 0.239,15 c 0.031,0.122 0.06,0.246 0.092,0.367 0.012,0.044 0.022,0.09 0.034,0.134 0.165,0.609 0.35,1.208 0.548,1.8 0.042,0.125 0.086,0.247 0.129,0.371 0.037,0.11 0.074,0.22 0.113,0.328 H 4.558 C 4.179,39.029 3.853,38.027 3.575,37 Z M 29.03,50.288 c 0.066,-0.549 0.567,-0.933 1.112,-0.875 0.612,0.073 1.237,0.11 1.858,0.11 0.552,0 1.043,0.448 1.043,1 0,0.552 -0.405,1 -0.957,1 H 32 c -0.7,0 -1.406,-0.042 -2.096,-0.124 -0.548,-0.065 -0.94,-0.563 -0.874,-1.111 z m 4.906,-41.7 C 33.897,8.588 33.858,8.586 33.819,8.581 33.217,8.511 32.605,8.476 32,8.476 c -0.552,0 -1.021,-0.448 -1.021,-1 0,-0.552 0.426,-1 0.979,-1 H 32 c 0.682,0 1.371,0.04 2.049,0.119 0.548,0.063 0.942,0.56 0.878,1.108 -0.059,0.509 -0.491,0.885 -0.991,0.885 z M 21.44,2.614 C 21.109,2.786 20.782,2.966 20.459,3.153 20.278,3.258 20.096,3.359 19.918,3.469 19.641,3.639 19.37,3.819 19.1,4 H 17.175 C 18.637,3.316 20.163,2.777 21.754,2.442 21.647,2.495 21.546,2.559 21.44,2.614 Z M 13.732,6 h 2.762 c -0.248,0.217 -0.496,0.435 -0.737,0.662 -0.201,0.19 -0.396,0.387 -0.592,0.584 -0.198,0.199 -0.394,0.401 -0.586,0.606 -0.185,0.197 -0.37,0.393 -0.55,0.596 C 13.869,8.628 13.716,8.815 13.561,9 H 10.259 C 11.333,7.883 12.492,6.876 13.732,6 Z M 9.324,48 h 3.432 c 0.113,0.148 0.225,0.296 0.341,0.441 0.302,0.38 0.613,0.75 0.932,1.111 0.179,0.203 0.365,0.399 0.55,0.596 0.193,0.206 0.389,0.408 0.588,0.607 0.08,0.08 0.156,0.166 0.237,0.245 H 12.396 C 11.297,50.101 10.27,49.097 9.324,48 Z m 12.429,7.558 C 19.46,55.075 17.293,54.189 15.283,53 h 2.419 c 0.128,0.099 0.26,0.192 0.389,0.288 0.207,0.154 0.414,0.309 0.625,0.456 0.393,0.274 0.794,0.537 1.201,0.787 0.178,0.109 0.36,0.211 0.541,0.316 0.323,0.187 0.65,0.367 0.981,0.539 0.107,0.055 0.208,0.119 0.314,0.172 z m 18.414,-6.025 c -0.623,0.32 -1.267,0.605 -1.914,0.849 -0.116,0.044 -0.235,0.065 -0.353,0.065 -0.404,0 -0.785,-0.247 -0.936,-0.648 -0.195,-0.517 0.066,-1.094 0.583,-1.288 0.576,-0.217 1.15,-0.472 1.706,-0.757 0.491,-0.254 1.094,-0.059 1.346,0.433 0.254,0.491 0.059,1.094 -0.432,1.346 z m 1.983,-38.7 c -0.192,0.294 -0.512,0.454 -0.839,0.454 -0.187,0 -0.376,-0.052 -0.545,-0.162 -0.523,-0.341 -1.068,-0.655 -1.621,-0.934 -0.493,-0.249 -0.691,-0.85 -0.442,-1.343 0.249,-0.491 0.85,-0.691 1.343,-0.442 0.618,0.312 1.227,0.663 1.812,1.043 0.463,0.302 0.593,0.922 0.292,1.384 z m 4.424,33.448 c -0.441,0.542 -0.908,1.063 -1.389,1.548 -0.195,0.197 -0.453,0.296 -0.71,0.296 -0.254,0 -0.509,-0.097 -0.704,-0.29 -0.392,-0.389 -0.395,-1.022 -0.006,-1.414 0.435,-0.438 0.857,-0.91 1.257,-1.402 0.349,-0.428 0.979,-0.494 1.407,-0.145 0.428,0.348 0.493,0.978 0.145,1.407 z m 0.329,-27.444 c -0.321,0 -0.636,-0.154 -0.829,-0.439 -0.354,-0.522 -0.734,-1.031 -1.13,-1.512 -0.351,-0.426 -0.29,-1.057 0.136,-1.408 0.426,-0.352 1.057,-0.29 1.408,0.136 0.436,0.529 0.854,1.088 1.243,1.663 0.31,0.457 0.19,1.079 -0.268,1.389 -0.172,0.116 -0.367,0.171 -0.56,0.171 z m 3.627,20.212 c -0.22,0.653 -0.47,1.303 -0.743,1.93 -0.164,0.376 -0.532,0.601 -0.917,0.601 -0.133,0 -0.269,-0.027 -0.399,-0.083 -0.506,-0.221 -0.738,-0.81 -0.518,-1.316 0.25,-0.575 0.479,-1.17 0.681,-1.769 0.176,-0.522 0.743,-0.805 1.267,-0.629 0.524,0.175 0.806,0.742 0.629,1.266 z m 1.227,-6.056 c -0.041,0.524 -0.479,0.923 -0.996,0.923 -0.026,0 -0.052,-0.001 -0.078,-0.003 -0.551,-0.042 -0.962,-0.523 -0.92,-1.074 0.047,-0.606 0.071,-1.225 0.071,-1.838 0,-0.552 0.448,-1.032 1,-1.032 0.552,0 1,0.415 1,0.967 V 29 c -0.001,0.665 -0.026,1.335 -0.077,1.993 z"
         id="path1678"
         style="fill:#d4af37;fill-opacity:1;stroke-width:1.00157;stroke-miterlimit:4;stroke-dasharray:none" />
      <g
         id="g1680"
         style="fill:#d4af37;fill-opacity:1;stroke-width:1.00157;stroke-miterlimit:4;stroke-dasharray:none">
</g>
      <g
         id="g1682"
         style="fill:#d4af37;fill-opacity:1;stroke-width:1.00157;stroke-miterlimit:4;stroke-dasharray:none">
</g>
      <g
         id="g1684"
         style="fill:#d4af37;fill-opacity:1;stroke-width:1.00157;stroke-miterlimit:4;stroke-dasharray:none">
</g>
      <g
         id="g1686"
         style="fill:#d4af37;fill-opacity:1;stroke-width:1.00157;stroke-miterlimit:4;stroke-dasharray:none">
</g>
      <g
         id="g1688"
         style="fill:#d4af37;fill-opacity:1;stroke-width:1.00157;stroke-miterlimit:4;stroke-dasharray:none">
</g>
      <g
         id="g1690"
         style="fill:#d4af37;fill-opacity:1;stroke-width:1.00157;stroke-miterlimit:4;stroke-dasharray:none">
</g>
      <g
         id="g1692"
         style="fill:#d4af37;fill-opacity:1;stroke-width:1.00157;stroke-miterlimit:4;stroke-dasharray:none">
</g>
      <g
         id="g1694"
         style="fill:#d4af37;fill-opacity:1;stroke-width:1.00157;stroke-miterlimit:4;stroke-dasharray:none">
</g>
      <g
         id="g1696"
         style="fill:#d4af37;fill-opacity:1;stroke-width:1.00157;stroke-miterlimit:4;stroke-dasharray:none">
</g>
      <g
         id="g1698"
         style="fill:#d4af37;fill-opacity:1;stroke-width:1.00157;stroke-miterlimit:4;stroke-dasharray:none">
</g>
      <g
         id="g1700"
         style="fill:#d4af37;fill-opacity:1;stroke-width:1.00157;stroke-miterlimit:4;stroke-dasharray:none">
</g>
      <g
         id="g1702"
         style="fill:#d4af37;fill-opacity:1;stroke-width:1.00157;stroke-miterlimit:4;stroke-dasharray:none">
</g>
      <g
         id="g1704"
         style="fill:#d4af37;fill-opacity:1;stroke-width:1.00157;stroke-miterlimit:4;stroke-dasharray:none">
</g>
      <g
         id="g1706"
         style="fill:#d4af37;fill-opacity:1;stroke-width:1.00157;stroke-miterlimit:4;stroke-dasharray:none">
</g>
      <g
         id="g1708"
         style="fill:#d4af37;fill-opacity:1;stroke-width:1.00157;stroke-miterlimit:4;stroke-dasharray:none">
</g>
    </g>
  </g>
  <style
     id="style3925" />
</svg>
